<svg width="20" height="20" viewBox="0 0 20 20" fill="none" xmlns="http://www.w3.org/2000/svg">
<path fill-rule="evenodd" clip-rule="evenodd" d="M3.33325 6.66667C2.87301 6.66667 2.49992 7.03976 2.49992 7.5V15.8333C2.49992 16.2936 2.87301 16.6667 3.33325 16.6667H16.6666C17.1268 16.6667 17.4999 16.2936 17.4999 15.8333V7.5C17.4999 7.03976 17.1268 6.66667 16.6666 6.66667H3.33325ZM0.833252 7.5C0.833252 6.11929 1.95254 5 3.33325 5H16.6666C18.0473 5 19.1666 6.11929 19.1666 7.5V15.8333C19.1666 17.214 18.0473 18.3333 16.6666 18.3333H3.33325C1.95254 18.3333 0.833252 17.214 0.833252 15.8333V7.5Z" fill="#1565D8"/>
<path fill-rule="evenodd" clip-rule="evenodd" d="M6.56549 2.3989C7.03433 1.93006 7.67021 1.66667 8.33325 1.66667H11.6666C12.3296 1.66667 12.9655 1.93006 13.4344 2.3989C13.9032 2.86774 14.1666 3.50363 14.1666 4.16667V17.5C14.1666 17.9602 13.7935 18.3333 13.3333 18.3333C12.873 18.3333 12.4999 17.9602 12.4999 17.5V4.16667C12.4999 3.94565 12.4121 3.73369 12.2558 3.57741C12.0996 3.42113 11.8876 3.33333 11.6666 3.33333H8.33325C8.11224 3.33333 7.90028 3.42113 7.744 3.57741C7.58772 3.73369 7.49992 3.94565 7.49992 4.16667V17.5C7.49992 17.9602 7.12682 18.3333 6.66658 18.3333C6.20635 18.3333 5.83325 17.9602 5.83325 17.5V4.16667C5.83325 3.50363 6.09664 2.86774 6.56549 2.3989Z" fill="#1565D8"/>
</svg>
