<svg width="16" height="16" viewBox="0 0 16 16" fill="none" xmlns="http://www.w3.org/2000/svg">
<g clip-path="url(#clip0_1_734)">
<path fill-rule="evenodd" clip-rule="evenodd" d="M0.666748 8C0.666748 3.94991 3.94999 0.666664 8.00008 0.666664C12.0502 0.666664 15.3334 3.94991 15.3334 8C15.3334 12.0501 12.0502 15.3333 8.00008 15.3333C3.94999 15.3333 0.666748 12.0501 0.666748 8Z" fill="#08AD36"/>
<path fill-rule="evenodd" clip-rule="evenodd" d="M11.5405 5.36195C11.8009 5.6223 11.8009 6.04441 11.5405 6.30476L7.40248 10.6381C7.14213 10.8984 6.72002 10.8984 6.45967 10.6381L4.45967 8.6381C4.19932 8.37775 4.19932 7.95564 4.45967 7.69529C4.72002 7.43494 5.14213 7.43494 5.40248 7.69529L6.93107 9.22388L10.5977 5.36195C10.8581 5.1016 11.2802 5.1016 11.5405 5.36195Z" fill="white"/>
</g>
<defs>
<clipPath id="clip0_1_734">
<rect width="16" height="16" fill="white"/>
</clipPath>
</defs>
</svg>
